<svg width="583" height="642" viewBox="0 0 583 642" fill="none" xmlns="http://www.w3.org/2000/svg">
<path d="M154.693 191.845C152.666 196.574 147.262 199.276 142.534 198.6C141.183 198.6 139.831 198.6 139.156 197.925C93.8965 197.925 56.0677 235.078 54.0411 281.013C60.1208 314.789 80.3862 338.432 114.162 351.266C120.917 353.968 123.619 361.399 121.593 367.479C119.566 372.207 114.837 375.585 110.109 375.585C108.758 375.585 106.731 375.585 105.38 374.909C61.4718 358.021 42.5574 327.623 33.7757 301.278C12.8348 312.762 0 335.054 0 360.724C0 378.962 6.75514 396.526 19.5899 409.361C23.643 413.414 24.3185 420.169 20.9409 425.573C12.1593 438.408 8.10617 452.593 8.10617 468.13C8.10617 491.773 18.9144 514.065 37.8288 527.576H120.917C124.97 519.469 130.374 503.933 124.97 489.071C120.242 475.561 107.407 464.753 85.7903 457.322C79.0352 455.295 75.6576 447.865 78.3597 441.11C80.3862 434.355 87.8169 430.977 94.572 433.679C123.619 443.812 141.858 460.024 148.613 480.965C154.693 498.528 151.991 515.416 147.262 527.576H243.185V441.11C218.191 412.063 180.362 426.248 179.687 426.248C172.932 428.95 166.177 425.573 163.474 418.818C160.772 412.063 164.15 405.307 170.905 402.605C185.766 397.201 216.165 393.148 243.185 408.685V162.122C233.728 156.718 222.92 154.016 212.112 154.016C187.793 154.016 165.501 168.202 154.693 191.845ZM191.171 253.992C191.171 253.992 168.879 267.503 167.528 287.092C166.852 299.252 174.283 311.411 190.495 324.921C195.899 329.65 196.575 337.081 192.522 342.485C189.82 345.862 186.442 347.213 183.064 347.213C180.362 347.213 177.66 346.538 174.958 344.511C151.991 325.597 141.183 306.007 143.209 285.741C145.911 253.317 178.336 233.727 179.687 233.051C185.766 229.674 193.197 231.7 197.25 237.78C198.601 243.184 197.25 250.615 191.171 253.992Z" fill="white"/>
<path d="M477.583 406.659C483.663 406.659 489.067 407.334 494.471 408.01C505.955 395.175 512.035 378.963 512.035 361.399C512.035 336.405 498.524 313.438 478.259 301.954C470.153 328.975 450.563 358.697 406.654 375.585C405.303 376.261 403.277 376.261 401.926 376.261C397.197 376.261 392.468 372.883 390.442 368.154C387.74 361.399 391.117 353.969 397.197 351.942C430.973 338.432 450.563 314.789 457.318 281.689C454.616 235.078 418.138 197.925 373.554 197.925C370.852 198.6 369.501 198.6 368.15 198.6C363.421 198.6 358.017 195.898 355.991 191.845C344.507 168.878 322.89 154.692 298.572 154.692C287.764 154.692 277.631 157.394 268.174 162.798V408.685C294.519 393.148 324.917 397.202 340.454 403.281C347.209 405.983 349.911 413.414 347.885 419.494C345.182 426.249 337.752 428.951 331.672 426.924C330.321 426.249 293.168 412.738 268.174 441.785V527.576H347.209C351.938 460.024 408.681 406.659 477.583 406.659ZM337.076 343.836C335.05 345.862 331.672 346.538 328.97 346.538C325.593 346.538 321.539 345.187 319.513 341.809C314.784 336.405 316.135 328.299 321.539 324.246C337.752 311.411 345.182 298.576 344.507 286.417C343.156 267.503 320.864 253.992 320.864 253.992C314.784 250.615 312.758 242.509 316.135 236.429C319.513 230.35 327.619 228.323 333.699 231.701C335.05 232.376 367.474 251.966 370.176 284.391C370.852 305.332 360.044 325.597 337.076 343.836Z" fill="white"/>
<path d="M138.484 113.486C141.862 120.917 148.617 125.646 156.048 125.646C158.75 125.646 160.776 124.97 163.478 124.294C173.611 120.241 177.664 108.758 173.611 99.3005L147.942 37.1532C143.889 27.0204 132.405 22.9674 122.948 27.0204C112.815 31.0735 108.762 42.5573 112.815 52.0145L138.484 113.486Z" fill="white"/>
<path d="M347.209 124.293C349.911 124.969 351.938 125.644 354.64 125.644C362.07 125.644 369.501 120.916 372.203 113.485L397.873 51.3378C401.926 41.2051 397.197 30.3968 387.74 26.3437C377.607 22.2907 366.799 27.0193 362.746 36.4765L337.076 98.6238C333.023 108.756 337.752 120.24 347.209 124.293Z" fill="white"/>
<path d="M274.932 86.4658V18.9144C274.932 8.10617 266.151 0 256.018 0C245.21 0 237.104 8.78169 237.104 18.9144V86.4658C237.104 97.2741 245.885 105.38 256.018 105.38C266.151 105.38 274.932 97.2741 274.932 86.4658Z" fill="white"/>
<path d="M477.584 432.329C419.489 432.329 372.879 479.615 372.879 537.034C372.879 594.453 420.165 641.739 477.584 641.739C535.002 641.739 582.288 595.128 582.288 537.034C582.288 478.94 535.678 432.329 477.584 432.329ZM527.572 523.524L473.531 577.565C470.153 580.942 466.1 582.293 462.047 582.293C457.994 582.293 453.941 580.942 451.239 577.565L424.218 550.544C418.138 544.464 418.138 534.332 424.218 528.252C430.298 522.172 440.43 522.172 446.51 528.252L462.047 543.789L505.28 500.556C511.359 494.476 521.492 494.476 527.572 500.556C534.327 507.311 534.327 517.444 527.572 523.524Z" fill="white"/>
</svg>
