<svg width="733" height="448" viewBox="0 0 733 448" fill="none" xmlns="http://www.w3.org/2000/svg">
<path d="M368.468 298.12H408.903V342.921C408.903 349.765 403.354 355.314 396.51 355.314H368.468V298.12ZM351.118 197.457V363.638C351.118 369.187 346.605 373.663 341.093 373.663L58.5658 373.737C53.0166 373.737 48.5402 369.224 48.5402 363.712L48.5032 197.455C48.5032 191.906 53.0165 187.43 58.5288 187.43H341.056C346.642 187.43 351.118 191.908 351.118 197.457ZM166.404 307.667H313.009V227.425H166.404V307.667ZM93.1543 322.02C93.1543 318.876 90.6017 316.323 87.4572 316.323H65.2231C62.0785 316.323 59.5259 318.876 59.5259 322.02V325.831C59.5259 328.975 62.0785 331.528 65.2231 331.528H87.4572C90.6017 331.528 93.1543 328.975 93.1543 325.831V322.02ZM93.1543 295.754C93.1543 292.61 90.6017 290.057 87.4572 290.057H65.2231C62.0785 290.057 59.5259 292.61 59.5259 295.754V299.565C59.5259 302.709 62.0785 305.262 65.2231 305.262H87.4572C90.6017 305.262 93.1543 302.709 93.1543 299.565V295.754ZM93.1543 269.452C93.1543 266.307 90.6017 263.755 87.4572 263.755H65.2231C62.0785 263.755 59.5259 266.307 59.5259 269.452V273.262C59.5259 276.407 62.0785 278.959 65.2231 278.959H87.4572C90.6017 278.959 93.1543 276.407 93.1543 273.262V269.452ZM93.1543 243.149C93.1543 240.005 90.6017 237.452 87.4572 237.452H65.2231C62.0785 237.452 59.5259 240.005 59.5259 243.149V246.959C59.5259 250.104 62.0785 252.657 65.2231 252.657H87.4572C90.6017 252.657 93.1543 250.104 93.1543 246.959V243.149ZM93.1543 216.883C93.1543 213.739 90.6017 211.186 87.4572 211.186H65.2231C62.0785 211.186 59.5259 213.739 59.5259 216.883V220.694C59.5259 223.838 62.0785 226.391 65.2231 226.391H87.4572C90.6017 226.391 93.1543 223.838 93.1543 220.694V216.883ZM135.698 322.026C135.698 318.881 133.146 316.329 130.001 316.329H107.767C104.622 316.329 102.07 318.881 102.07 322.026V325.836C102.07 328.981 104.622 331.533 107.767 331.533H130.001C133.146 331.533 135.698 328.981 135.698 325.836V322.026ZM135.698 295.76C135.698 292.616 133.146 290.063 130.001 290.063H107.767C104.622 290.063 102.07 292.616 102.07 295.76V299.571C102.07 302.715 104.622 305.268 107.767 305.268H130.001C133.146 305.268 135.698 302.715 135.698 299.571V295.76ZM135.698 269.457C135.698 266.313 133.146 263.76 130.001 263.76H107.767C104.622 263.76 102.07 266.313 102.07 269.457V273.268C102.07 276.412 104.622 278.965 107.767 278.965H130.001C133.146 278.965 135.698 276.412 135.698 273.268V269.457ZM135.698 243.155C135.698 240.01 133.146 237.458 130.001 237.458H107.767C104.622 237.458 102.07 240.01 102.07 243.155V246.965C102.07 250.11 104.622 252.662 107.767 252.662H130.001C133.146 252.662 135.698 250.11 135.698 246.965V243.155ZM135.698 216.889C135.698 213.744 133.146 211.192 130.001 211.192H107.767C104.622 211.192 102.07 213.744 102.07 216.889V220.699C102.07 223.844 104.622 226.397 107.767 226.397H130.001C133.146 226.397 135.698 223.844 135.698 220.699V216.889ZM218.381 351.258C218.381 343.822 212.351 337.755 204.878 337.755C197.442 337.755 191.375 343.785 191.375 351.258C191.375 358.694 197.405 364.761 204.878 364.761C212.351 364.761 218.381 358.731 218.381 351.258ZM255.856 351.258C255.856 343.822 249.826 337.755 242.353 337.755C234.917 337.755 228.85 343.785 228.85 351.258C228.85 358.694 234.88 364.761 242.353 364.761C249.789 364.761 255.856 358.731 255.856 351.258ZM293.295 351.258C293.295 343.822 287.264 337.755 279.791 337.755C272.355 337.755 266.288 343.785 266.288 351.258C266.288 358.694 272.318 364.761 279.791 364.761C287.264 364.761 293.295 358.731 293.295 351.258ZM392.736 275.123H368.43V280.783H392.736V275.123ZM396.509 203.538H368.468V257.81H408.903L408.866 215.932C408.866 209.088 403.316 203.538 396.509 203.538ZM698.233 114.493V448H732.897L732.86 114.493H698.233ZM505.895 135.136V419.254C505.895 433.126 494.611 444.41 480.739 444.41H25.1558C11.2833 444.41 0 433.126 0 419.254V135.136C0 121.263 11.2833 109.98 25.1558 109.98H480.777C494.612 109.98 505.895 121.263 505.895 135.136ZM469.307 153.041C469.307 146.604 464.054 141.351 457.616 141.351C451.179 141.351 445.926 146.604 445.926 153.041C445.926 159.478 451.179 164.732 457.616 164.732C464.054 164.732 469.307 159.478 469.307 153.041ZM384.627 403.718C384.627 398.946 380.742 395.062 375.97 395.062C371.198 395.062 367.313 398.946 367.313 403.718V427.099C367.313 431.872 371.198 435.756 375.97 435.756C380.742 435.756 384.627 431.872 384.627 427.099V403.718ZM415.739 403.718C415.739 398.946 411.855 395.062 407.083 395.062C402.31 395.062 398.426 398.946 398.426 403.718V427.099C398.426 431.872 402.31 435.756 407.083 435.756C411.855 435.756 415.739 431.872 415.739 427.099V403.718ZM426.209 215.935C426.209 199.546 412.892 186.229 396.503 186.229H366.019C361.727 176.758 352.183 170.136 341.121 170.136L58.5567 170.099C43.4625 170.099 31.181 182.382 31.181 197.475V363.694C31.181 378.788 43.4634 391.069 58.5567 391.069H341.084C353.033 391.069 363.206 383.374 366.906 372.646H396.465C412.854 372.646 426.171 359.329 426.171 342.94V280.826H410.042V275.166H426.171L426.209 215.935ZM446.852 403.718C446.852 398.946 442.968 395.062 438.195 395.062C433.423 395.062 429.539 398.946 429.539 403.718V427.099C429.539 431.872 433.423 435.756 438.195 435.756C442.968 435.756 446.852 431.872 446.852 427.099V403.718ZM477.965 403.718C477.965 398.946 474.081 395.062 469.308 395.062C464.536 395.062 460.652 398.946 460.652 403.718V427.099C460.652 431.872 464.536 435.756 469.308 435.756C474.081 435.756 477.965 431.872 477.965 427.099V403.718ZM599.454 390.659L680.879 444.968V117.493L599.454 171.801V390.659ZM131.029 52.6063C140.573 38.1049 156.629 29.4848 174.017 29.4848H243.751L202.873 91.5248H231.913L272.792 29.4848H439.522C444.738 29.4848 448.993 25.2304 448.993 20.0142V9.4706C448.993 4.25438 444.738 0 439.522 0L148.784 0.0369945C137.279 0.0369945 126.625 5.77115 120.298 15.3898L70.2823 91.2654L105.945 90.6735L131.029 52.6063ZM523.206 385.337H582.102L582.139 175.876H523.243L523.206 385.337Z" fill="white"/>
</svg>
